<svg xmlns="http://www.w3.org/2000/svg" viewBox="0 0 243.78 172.1"><defs><style>.cls-1{fill:#26336c;}.cls-2{fill:#df3348;}</style></defs><g id="Capa_2" data-name="Capa 2"><g id="Capa_1-2" data-name="Capa 1"><polygon class="cls-1" points="132.22 96.58 136.89 106.05 147.34 107.57 139.78 114.93 141.56 125.34 132.22 120.43 122.88 125.34 124.66 114.93 117.1 107.57 127.55 106.05 132.22 96.58"/><path class="cls-2" d="M191.94,105.64a60.05,60.05,0,0,0-39.18-50L0,0,18.85,34.4A31.09,31.09,0,0,0,35.51,48.7L89,68.18l1.56.57,15.53,5.65-18.9-2.11a60,60,0,0,0,10.62,89,70.05,70.05,0,0,0,11.5,6.27c.77.32,1.55.63,2.34.92a60.07,60.07,0,0,0,80.26-62.82Zm-68.76,31.23a26.43,26.43,0,1,1,33.88-15.8A26.43,26.43,0,0,1,123.18,136.87Z"/><path class="cls-2" d="M75.17,73.38l-48-17.46L40,79.31c7.22,13.18,10.41,20.33,23.67,25.62A68.66,68.66,0,0,1,75.17,73.38Z"/><path class="cls-2" d="M234.32,94.56h0a11.24,11.24,0,0,0-4.75-9.83A33,33,0,0,0,222,80.81L182.87,66.56a68.6,68.6,0,0,1,17.07,42.14l19.24,7a26.73,26.73,0,0,1,13.67,11.18l4.76,7.78,4.18-11.48a32.89,32.89,0,0,0,1.83-14.52,18.58,18.58,0,0,0-8.85-13.82Z"/></g></g></svg>