<svg xmlns="http://www.w3.org/2000/svg" viewBox="0 0 599.39 172.1"><defs><style>.cls-1{fill:#fff;}</style></defs><g id="Capa_2" data-name="Capa 2"><g id="Capa_1-2" data-name="Capa 1"><polygon class="cls-1" points="132.22 96.58 136.89 106.05 147.34 107.57 139.78 114.93 141.56 125.34 132.22 120.43 122.88 125.34 124.66 114.93 117.1 107.57 127.55 106.05 132.22 96.58"/><path class="cls-1" d="M191.94,105.64a60.05,60.05,0,0,0-39.18-50L0,0,18.85,34.4A31.09,31.09,0,0,0,35.51,48.7L89,68.18l1.56.57,15.53,5.65-18.9-2.11a60,60,0,0,0,10.62,89,70.05,70.05,0,0,0,11.5,6.27c.77.32,1.55.63,2.34.92a60.07,60.07,0,0,0,80.26-62.82Zm-68.76,31.23a26.43,26.43,0,1,1,33.88-15.8A26.43,26.43,0,0,1,123.18,136.87Z"/><path class="cls-1" d="M75.17,73.38l-48-17.46L40,79.31c7.22,13.18,10.41,20.33,23.67,25.62A68.66,68.66,0,0,1,75.17,73.38Z"/><path class="cls-1" d="M234.32,94.56h0a11.24,11.24,0,0,0-4.75-9.83A33,33,0,0,0,222,80.81L182.87,66.56a68.6,68.6,0,0,1,17.07,42.14l19.24,7a26.73,26.73,0,0,1,13.67,11.18l4.76,7.78,4.18-11.48a32.89,32.89,0,0,0,1.83-14.52,18.58,18.58,0,0,0-8.85-13.82Z"/><path class="cls-1" d="M287.14,37.8v9.6h25.34V58.09H287.14V68.55h28.74v11.7H273.51V26.1h42.37V37.8Z"/><path class="cls-1" d="M374.44,70.57H354.3l-3.41,9.68H335.71L356.86,26.1H372l21.14,54.15H377.93Zm-3.95-11-6-16.42h-.15l-6,16.42Z"/><path class="cls-1" d="M468.1,53.13V80.25h-8.76l-2.63-4.49h-.23c-2.33,3.79-8.76,5.65-13.56,5.65-18.59,0-29.67-12.55-29.67-28.28S425,24.86,442.92,24.86c9.76,0,16.58,3.64,21.92,10.22l-10.22,7.29a13.92,13.92,0,0,0-11.7-5.81c-10.85,0-16.11,7.2-16.11,16.57s5.26,16.58,16.11,16.58c7.44,0,11.54-3.71,11.54-13.24V53.13Z"/><path class="cls-1" d="M494.66,26.1h13.56V68.55H535v11.7H494.66Z"/><path class="cls-1" d="M570.65,37.8v9.6H596V58.09H570.65V68.55h28.74v11.7H557V26.1h42.37V37.8Z"/><path class="cls-1" d="M308.26,103.23v4.68H292.6v38.41h-4.93V107.91H272.14v-4.68Z"/><path class="cls-1" d="M377.55,103.23v22.56c0,12.51-6.35,21.45-19.17,21.45s-19.3-8.94-19.3-21.45V103.23H344v22.56c0,10.6,5.86,16.77,14.37,16.77,8.75,0,14.23-6.23,14.23-16.77V103.23Z"/><path class="cls-1" d="M440.85,129.86l7.71,16.46h-5.74l-7.21-15.48c-.86.07-1.79.13-2.71.13h-16v15.35h-4.86V103.23H432.9c11.9,0,16.77,5.36,16.77,13.62C449.67,123.32,446.89,127.89,440.85,129.86Zm-8-3.58c8.26,0,11.83-2.83,11.83-9.43,0-5.48-3.76-8.94-11.83-8.94h-16v18.37Z"/><path class="cls-1" d="M521,135.22c0,7.95-5.91,11.1-18.79,11.1H482.28V103.23h19.91c12.38,0,17.62,3.58,17.62,11.53,0,4.93-2.22,8.26-8.26,9.74v.06C517.59,125.3,521,129.24,521,135.22Zm-33.77-12.7h15c8.25,0,12.69-2.59,12.69-7,0-5.3-3.08-7.65-12.69-7.65h-15Zm28.84,12.09c0-5.06-3.33-7.59-13.86-7.59h-15v14.61h15C513.34,141.63,516.05,139.35,516.05,134.61Z"/><path class="cls-1" d="M599.39,124.93c0,12.63-9.12,22.31-23.79,22.31-14.3,0-23.79-9.18-23.79-22.31s9.12-22.62,23.79-22.62C590,102.31,599.39,111.49,599.39,124.93Zm-4.87,0c0-11-8-17.94-18.92-17.94-11.77,0-18.86,6.9-18.86,17.94,0,10.48,8.07,17.63,18.86,17.63C586.7,142.56,594.52,135.65,594.52,124.93Z"/></g></g></svg>