<?xml version="1.0" encoding="UTF-8"?>
<svg width="334px" height="512px" viewBox="0 0 334 512" version="1.1" xmlns="http://www.w3.org/2000/svg" xmlns:xlink="http://www.w3.org/1999/xlink">
    <title>strategy</title>
    <g id="Desktop" stroke="none" stroke-width="1" fill="none" fill-rule="evenodd">
        <g id="Dropdown" transform="translate(-816.000000, -27.000000)" fill="#FFFFFF" fill-rule="nonzero">
            <g id="strategy" transform="translate(816.000000, 27.000000)">
                <path d="M210.359,266.002 C204.839,266.002 200.359,270.482 200.359,276.002 C200.359,281.522 204.839,286.002 210.359,286.002 C215.879,286.002 220.359,281.522 220.359,276.002 C220.359,270.482 215.878,266.002 210.359,266.002 Z" id="Path"></path>
                <path d="M150.359,123.002 C144.839,123.002 140.359,127.482 140.359,133.002 C140.359,138.522 144.839,143.002 150.359,143.002 C155.879,143.002 160.359,138.522 160.359,133.002 C160.359,127.482 155.878,123.002 150.359,123.002 Z" id="Path"></path>
                <path d="M322.646,178.251 C307.268,132.12 276.556,91.86 236.151,64.849 C227.12,34.888 204.752,10.933 176.61,1.548 L173.53,0.518 C169.687,-0.768 165.457,0.392 162.806,3.448 C160.154,6.505 159.605,10.859 161.416,14.478 C165.273,22.184 167.879,30.984 169.059,40.159 L163.287,45.931 C152.279,56.939 137.644,63.002 122.078,63.002 L110.358,63.002 C106.749,63.002 103.247,65.001 101.48,68.411 C101.459,68.451 101.434,68.487 101.414,68.527 L94.352,82.641 C88.077,95.2 75.456,103.001 61.416,103.001 C57.01,103.001 52.615,103.512 48.36,104.518 C39.687,106.564 34.403,109.923 31.776,111.116 C12.395,120.8 0.356,140.275 0.356,161.941 C0.356,177.626 6.147,186.954 12.499,199.636 C19.205,212.851 32.577,221.061 47.396,221.061 C53.501,221.061 59.379,219.669 64.873,216.923 C80.218,209.241 99.136,208.606 115.732,216.869 L115.766,216.887 C115.842,216.927 115.917,216.967 115.995,217.005 C121.403,219.709 127.265,221.511 133.26,222.384 C122.065,230.137 110.373,235.689 98.82,238.579 C48.003,251.284 15.107,304.994 34.299,362.441 L40.869,382.161 C42.229,386.245 46.052,389 50.356,389 L60.356,389 L60.356,412 L50.356,412 C33.781,412 20.356,425.424 20.356,442 C20.356,448.169 22.23,453.908 25.435,458.681 C10.461,467.328 0.356,483.5 0.356,502 C0.356,507.523 4.834,512 10.356,512 L290.356,512 C295.878,512 300.356,507.523 300.356,502 C300.356,483.599 290.442,467.417 275.307,458.667 C278.591,453.774 280.356,448.022 280.356,442 C280.356,425.458 266.898,412 250.356,412 L240.356,412 L240.356,389 L250.359,389 L250.359,389.002 C254.663,389.002 258.485,386.248 259.845,382.165 L264.036,369.595 C266.538,362.088 268.8,354.183 270.793,346.003 L310.358,346.003 C315.125,346.003 319.228,342.639 320.164,337.965 L329.505,291.282 C336.844,254.545 334.344,213.346 322.646,178.251 Z M278.656,492.002 L22.073,492.002 C26.2,480.361 37.322,472.002 50.359,472.002 L250.359,472.002 C263.648,472.002 274.628,480.587 278.656,492.002 Z M250.359,432.002 C255.872,432.002 260.359,436.487 260.359,442.002 C260.359,447.523 255.881,452.002 250.359,452.002 L50.359,452.002 C44.845,452.002 40.359,447.516 40.359,442.002 C40.359,436.481 44.837,432.002 50.359,432.002 L250.359,432.002 Z M80.359,412.002 L80.359,389.002 C105.298,389.002 187.52,389.002 220.359,389.002 L220.359,412.002 L80.359,412.002 Z M253.672,330.961 C252.598,332.796 252.13,334.9 252.355,337.051 C248.324,354.684 244.295,365.335 243.152,369 L230.359,369 L183.346,369 C198.821,358.361 211.483,339.595 217.296,318.576 C218.769,313.253 215.647,307.744 210.324,306.272 C204.998,304.8 199.491,307.921 198.02,313.244 C193.427,329.847 183.276,345.032 171.532,352.869 L147.332,369 C134.095,369 68.818,369 57.568,369 L53.273,356.113 C37.909,310.123 63.799,267.952 103.675,257.983 C128.51,251.77 153.533,235.639 174.253,212.518 C181.846,207.147 188.06,199.951 192.242,191.587 L199.302,177.477 C201.773,172.538 199.773,166.531 194.833,164.06 C189.894,161.589 183.887,163.59 181.415,168.528 L174.354,182.64 C165.314,200.716 143.301,208.222 125.048,199.172 L125.018,199.156 C124.944,199.116 124.869,199.078 124.794,199.04 C102.716,187.989 77.114,188.431 55.926,199.038 C53.239,200.381 50.37,201.062 47.398,201.062 C40.152,201.062 33.614,197.048 30.359,190.633 L30.177,190.27 L53.52,182.489 C58.759,180.742 61.591,175.079 59.845,169.84 C58.098,164.6 52.437,161.768 47.196,163.515 L21.764,171.992 C17.019,155.275 24.482,137.12 40.736,128.998 C43.596,127.679 47.042,125.379 52.96,123.983 C55.714,123.332 58.56,123.002 61.418,123.002 C83.084,123.002 102.56,110.962 112.242,91.586 L116.537,83.002 L122.078,83.002 C138.912,83.002 154.931,77.715 168.253,67.94 C166.87,75.237 164.573,82.214 161.415,88.527 C158.944,93.466 160.944,99.473 165.884,101.944 C170.823,104.415 176.83,102.415 179.302,97.476 C189.297,77.498 192.419,52.563 187.476,29.19 C202.507,39.653 213.743,56.159 218.286,75.393 C219.662,81.238 220.359,87.162 220.359,93.001 C220.359,94.076 220.532,95.144 220.873,96.164 L245.062,168.733 C254.926,198.326 260.359,232.87 260.359,266.001 C260.359,286.905 258.2,308.912 253.672,330.961 Z M309.893,287.359 L302.162,326.001 L274.983,326.001 C275.433,323.47 275.866,320.933 276.261,318.392 C278.981,300.843 280.36,283.216 280.36,266.001 C280.36,230.777 274.563,193.987 264.037,162.409 L241.027,93.377 C269.867,117.187 291.798,148.955 303.672,184.574 C314.303,216.468 316.57,253.933 309.893,287.359 Z" id="Shape"></path>
            </g>
        </g>
    </g>
</svg>