<?xml version="1.0" encoding="UTF-8"?>
<svg width="460px" height="512px" viewBox="0 0 460 512" version="1.1" xmlns="http://www.w3.org/2000/svg" xmlns:xlink="http://www.w3.org/1999/xlink">
    <title>support (1)</title>
    <g id="Desktop" stroke="none" stroke-width="1" fill="none" fill-rule="evenodd">
        <g id="Dropdown" transform="translate(-407.000000, -460.000000)" fill="#FFFFFF" fill-rule="nonzero">
            <g id="support-(1)" transform="translate(407.000000, 460.000000)">
                <path d="M340,396 C334.48,396 330,400.48 330,406 C330,411.52 334.48,416 340,416 C345.52,416 350,411.52 350,406 C350,400.48 345.52,396 340,396 Z" id="Path"></path>
                <path d="M364.622,363.663 L317.092,347.823 L300.029,313.696 C315.401,298.05 326.074,277.348 329.673,255.755 L331.801,243 L350,243 C366.542,243 380,229.542 380,213 L380,150 C380,67.29 312.71,0 230,0 C147.078,0 80,67.097 80,150 L80,213 C80,226.036 88.361,237.152 100,241.28 L100,253 C100,269.542 113.458,283 130,283 L138.782,283 C143.117,292.417 148.728,301.139 155.556,308.974 C156.972,310.602 158.449,312.18 159.962,313.715 L142.908,347.823 L95.377,363.664 C40.112,382.092 0,440.271 0,502 C0,507.523 4.477,512 10,512 L450,512 C455.522,512 460,507.523 460,502 C460,440.271 419.889,382.092 364.622,363.663 Z M360,213 C360,218.514 355.514,223 350,223 L334.738,223 C337.28,203.31 338.974,182.357 339.655,161.72 C339.675,161.138 339.691,160.572 339.709,160 L360,160 L360,213 Z M110,223 C104.486,223 100,218.514 100,213 L100,160 L120.298,160 C120.331,161.043 120.366,162.091 120.405,163.146 C120.406,163.182 120.408,163.217 120.409,163.253 C120.409,163.256 120.409,163.259 120.409,163.262 C121.109,183.334 122.781,203.743 125.265,222.999 L110,222.999 L110,223 Z M130,263 C124.486,263 120,258.514 120,253 L120,243 L128.198,243 L130.326,255.759 C130.732,258.184 131.231,260.6 131.808,263 L130,263 Z M120.017,140 L100.38,140 C105.445,72.979 161.377,20 230,20 C298.318,20 354.496,72.972 359.619,140 L339.984,140 C339.264,84.773 294.291,40 238.951,40 L221.051,40 C165.712,40 120.736,84.773 120.017,140 Z M221.05,60 L238.95,60 C283.759,60 320.026,96.651 320.000014,141.41 C320.000014,144.557 319.975,147.297 319.922,149.79 C319.922,149.822 319.921,149.855 319.921,149.888 L307.413,148.101 C273.433,143.249 241.349,127.207 217.071,102.929 C215.195,101.054 212.652,100 210,100 C183.144,100 157.436,112.236 140.442,132.908 C144.63,92.189 179.053,60 221.05,60 Z M152.54,263 C147.534,246.347 141.806,197.347 140.54,165.947 L153.999,148.001 C166.36,131.525 185.591,121.288 206.048,120.113 C232.965,145.729 267.787,162.645 304.585,167.899 L319.307,170.003 C318.323,190.888 316.312,211.846 313.431,231.121 C313.43,231.127 313.429,231.134 313.428,231.141 C312.512,237.338 311.79,241.326 309.946,252.465 C304.65,284.23 280.948,312.955 249.659,320.778 C236.782,323.993 223.216,323.992 210.346,320.778 C190.809,315.894 172.895,302.376 161.334,283 L181.72,283 C185.848,294.639 196.963,303 210,303 L230,303 C246.575,303 260,289.576 260,273 C260,256.458 246.542,243 230,243 L210,243 C196.673,243 185.722,251.608 181.703,263 L152.54,263 Z M209.159,341.016 C216.018,342.461 223.011,343.2 230,343.2 C235.471,343.2 240.943,342.742 246.353,341.854 L228.683,360.541 L209.159,341.016 Z M214.935,375.079 L183.217,408.621 C174.485,391.907 166.982,374.512 160.828,356.704 L172.739,332.882 L214.935,375.079 Z M285.566,329.494 L299.17,356.703 C293.006,374.541 285.501,391.942 276.778,408.636 L242.83,374.688 L285.566,329.494 Z M200,273 C200,267.479 204.478,263 210,263 L230,263 C235.514,263 240,267.486 240,273 C240,278.522 235.521,283 230,283 L210,283 C204.486,283 200,278.514 200,273 Z M20.4,492 C24.363,442.461 57.332,397.433 101.702,382.637 L143.796,368.609 C151.508,389.934 161.062,410.661 172.259,430.349 C172.278,430.383 172.296,430.417 172.315,430.45 C172.315,430.451 172.316,430.451 172.316,430.452 C180.497,444.841 189.705,458.902 199.688,472.251 L211.99,492 L20.4,492 Z M230,483.086 L216.438,461.313 C216.286,461.069 216.124,460.832 215.952,460.602 C207.854,449.8 200.3,438.503 193.42,426.94 L229.083,389.226 L266.661,426.804 C259.735,438.451 252.155,449.795 244.05,460.6 C243.56,461.253 244.255,460.224 230,483.086 Z M248.01,492 L260.311,472.252 C270.338,458.852 279.612,444.678 287.875,430.12 C287.925,430.032 287.972,429.942 288.022,429.854 C288.028,429.843 288.034,429.833 288.04,429.822 C299.095,410.322 308.549,389.775 316.204,368.609 L358.297,382.637 C402.668,397.433 435.637,442.461 439.6,492 L248.01,492 Z" id="Shape"></path>
                <path d="M409.546,451.531 C402.863,438.154 393.074,426.27 381.237,417.164 C376.859,413.795 370.581,414.614 367.214,418.992 C363.846,423.37 364.665,429.648 369.042,433.016 C378.496,440.289 386.314,449.782 391.653,460.469 C394.126,465.418 400.136,467.41 405.068,464.946 C410.008,462.478 412.013,456.472 409.546,451.531 Z" id="Path"></path>
            </g>
        </g>
    </g>
</svg>