<?xml version="1.0" encoding="UTF-8"?>
<svg width="512px" height="512px" viewBox="0 0 512 512" version="1.1" xmlns="http://www.w3.org/2000/svg" xmlns:xlink="http://www.w3.org/1999/xlink">
    <title>target</title>
    <g id="Desktop" stroke="none" stroke-width="1" fill="none" fill-rule="evenodd">
        <g id="Dropdown" transform="translate(-104.000000, -42.000000)" fill="#FFFFFF" fill-rule="nonzero">
            <g id="target" transform="translate(104.000000, 42.000000)">
                <path d="M156.585,214.35 C154.845,212.88 152.595,212 150.145,212 C144.625,212 140.145,216.48 140.145,222 C140.145,225.46 141.905,228.51 144.575,230.3 C146.165,231.38 148.085,232 150.145,232 C155.665,232 160.145,227.52 160.145,222 C160.145,218.93 158.765,216.19 156.585,214.35 Z" id="Path"></path>
                <path d="M511.287,77.389 C510.012,73.767 506.775,71.195 502.959,70.771 L447.271,64.584 L441.084,8.896 C440.659,5.071 438.077,1.83 434.444,0.56 C430.812,-0.709 426.773,0.218 424.057,2.945 C422.842,4.164 435.421,-8.461 344.74,82.552 C309.979,62.54 270.572,52 230.145,52 C103.032,52 0.145,154.871 0.145,282 C0.145,409.112 103.016,512 230.145,512 C357.258,512 460.145,409.129 460.145,282 C460.145,241.573 449.605,202.167 429.594,167.405 C502.309,94.422 508.651,88.056 508.933,87.774 C508.891,87.816 508.761,87.947 508.943,87.764 C511.651,85.042 512.563,81.01 511.287,77.389 Z M423.51,31.845 L423.51,31.845 C423.488,31.867 423.417,31.939 423.391,31.965 C423.406,31.949 423.443,31.912 423.51,31.845 Z M423.51,31.845 L427.746,69.973 C417.422,80.311 366.94,130.864 362.267,135.544 L358.047,97.531 C417.82,37.554 423.318,32.038 423.51,31.845 Z M171.349,200.373 C174.057,205.186 180.154,206.894 184.968,204.186 C199.748,195.872 214.103,192 230.145,192 C250.761,192 270.333,198.937 286.235,211.681 L257.685,240.271 C249.583,234.892 240.085,232.001 230.146,232.001 C202.576,232.001 180.146,254.431 180.146,282.001 C180.146,309.571 202.576,332.001 230.146,332.001 C257.716,332.001 280.146,309.571 280.146,282.001 C280.146,272.033 277.24,262.513 271.838,254.401 L300.386,225.812 C313.181,241.732 320.146,261.339 320.146,282.001 C320.146,331.627 279.772,372.001 230.146,372.001 C180.52,372.001 140.146,331.627 140.146,282.001 C140.146,273.401 141.189,267.152 142.756,260.416 C144.007,255.037 140.66,249.662 135.281,248.411 C129.904,247.16 124.528,250.507 123.276,255.886 C121.053,265.445 120.146,273.011 120.146,282.001 C120.146,342.655 169.492,392.001 230.146,392.001 C290.8,392.001 340.146,342.655 340.146,282.001 C340.146,255.986 331.136,231.336 314.597,211.58 L342.918,183.218 C371.25,215.492 384.327,257.935 378.927,301.17 C369.371,375.755 305.41,432 230.145,432 C147.435,432 80.145,364.71 80.145,282 C80.145,199.29 147.435,132 230.145,132 C266.762,132 301.412,145.104 328.773,169.083 L300.446,197.449 C280.711,180.975 256.103,172 230.145,172 C210.797,172 192.812,176.826 175.162,186.754 C170.349,189.462 168.641,195.559 171.349,200.373 Z M223.078,289.076 C226.966,292.959 233.298,292.993 237.22,289.066 L257.208,269.049 C259.129,273.041 260.145,277.442 260.145,282 C260.145,298.542 246.687,312 230.145,312 C213.603,312 200.145,298.542 200.145,282 C200.145,265.458 213.603,252 230.145,252 C234.686,252 239.074,253.009 243.057,254.918 L223.068,274.934 C219.166,278.842 219.17,285.173 223.078,289.076 Z M440.145,282 C440.145,397.794 345.939,492 230.145,492 C114.351,492 20.145,397.794 20.145,282 C20.145,166.206 114.35,72 230.145,72 C268.485,72 305.814,82.375 338.422,102.038 L344.157,153.678 L342.931,154.905 C311.77,127.171 272.099,112 230.145,112 C136.407,112 60.145,188.262 60.145,282 C60.145,375.738 136.407,452 230.145,452 C315.444,452 387.934,388.25 398.768,303.679 C404.942,254.237 389.804,205.72 357.084,169.029 L358.16,167.952 L410.105,173.72 C429.769,206.329 440.145,243.658 440.145,282 Z M414.616,154.098 L376.251,149.837 C395.251,130.813 398.533,127.527 398.728,127.332 C398.48,127.581 391.466,134.603 441.893,84.109 L480.135,88.357 C478.679,89.819 491.484,76.971 414.616,154.098 Z" id="Shape"></path>
            </g>
        </g>
    </g>
</svg>